<svg xmlns="http://www.w3.org/2000/svg" viewBox="0 0 512 512">
  <defs>
    <radialGradient id="grad1" cx="50%" cy="50%" r="50%">
      <stop offset="0%" style="stop-color:#ff4500;stop-opacity:1" />
      <stop offset="100%" style="stop-color:#c41e00;stop-opacity:1" />
    </radialGradient>
    <filter id="glow">
      <feGaussianBlur stdDeviation="3" result="coloredBlur"/>
      <feMerge>
        <feMergeNode in="coloredBlur"/>
        <feMergeNode in="SourceGraphic"/>
      </feMerge>
    </filter>
  </defs>
  
  <!-- Main clock body -->
  <circle cx="256" cy="280" r="180" fill="url(#grad1)" stroke="#ff4500" stroke-width="12" filter="url(#glow)"/>
  <circle cx="256" cy="280" r="160" fill="#2d1810" stroke="#ff6347" stroke-width="8"/>
  
  <!-- Clock markers -->
  <rect x="251" y="130" width="10" height="20" rx="5" fill="#ff4500"/>
  <rect x="251" y="430" width="10" height="20" rx="5" fill="#ff4500"/>
  <rect x="376" y="275" width="20" height="10" rx="5" fill="#ff4500"/>
  <rect x="146" y="275" width="20" height="10" rx="5" fill="#ff4500"/>
  
  <!-- Clock hands -->
  <line x1="256" y1="280" x2="256" y2="200" stroke="#ff4500" stroke-width="8" stroke-linecap="round" filter="url(#glow)"/>
  <line x1="256" y1="280" x2="310" y2="330" stroke="#ff4500" stroke-width="6" stroke-linecap="round" filter="url(#glow)"/>
  <circle cx="256" cy="280" r="12" fill="#ff4500" filter="url(#glow)"/>
  
  <!-- Alarm bells -->
  <ellipse cx="120" cy="110" rx="50" ry="55" fill="url(#grad1)" stroke="#ff4500" stroke-width="8" filter="url(#glow)"/>
  <ellipse cx="120" cy="110" rx="35" ry="40" fill="#2d1810"/>
  <rect x="115" y="55" width="10" height="25" rx="5" fill="#ff4500"/>
  
  <ellipse cx="392" cy="110" rx="50" ry="55" fill="url(#grad1)" stroke="#ff4500" stroke-width="8" filter="url(#glow)"/>
  <ellipse cx="392" cy="110" rx="35" ry="40" fill="#2d1810"/>
  <rect x="387" y="55" width="10" height="25" rx="5" fill="#ff4500"/>
  
  <!-- Top button -->
  <rect x="236" y="45" width="40" height="30" rx="8" fill="url(#grad1)" stroke="#ff4500" stroke-width="4"/>
  <rect x="246" y="35" width="20" height="15" rx="3" fill="#c41e00"/>
  
  <!-- Legs -->
  <path d="M 180 440 L 150 480 L 190 485 Z" fill="url(#grad1)" stroke="#ff4500" stroke-width="4"/>
  <path d="M 332 440 L 362 480 L 322 485 Z" fill="url(#grad1)" stroke="#ff4500" stroke-width="4"/>
</svg>
